<svg width="16" height="12" viewBox="0 0 16 12" fill="none" xmlns="http://www.w3.org/2000/svg">
<path d="M15.9833 5.98237C15.9827 5.81212 15.9341 5.6439 15.8405 5.48877C15.747 5.33365 15.6107 5.19514 15.4407 5.08237L7.988 0.16287C7.79549 0.0446748 7.54931 -0.0128513 7.30135 0.00241562C7.0534 0.0176825 6.82303 0.10455 6.65879 0.244711C6.49456 0.384871 6.40929 0.567377 6.42096 0.753765C6.43262 0.940154 6.54031 1.11587 6.72133 1.24387L12.4793 5.04387C12.5046 5.06067 12.5224 5.08283 12.5305 5.10741C12.5386 5.13199 12.5366 5.15784 12.5246 5.18153C12.5127 5.20521 12.4915 5.22562 12.4637 5.24006C12.436 5.2545 12.4031 5.26228 12.3693 5.26237H0.96C0.705392 5.26237 0.461212 5.33823 0.281178 5.47325C0.101143 5.60828 0 5.79141 0 5.98237C0 6.17333 0.101143 6.35646 0.281178 6.49149C0.461212 6.62651 0.705392 6.70237 0.96 6.70237H12.3673C12.4011 6.70261 12.4339 6.7105 12.4616 6.725C12.4893 6.7395 12.5104 6.75994 12.5223 6.78362C12.5342 6.80731 12.5363 6.83314 12.5283 6.85772C12.5202 6.8823 12.5025 6.90449 12.4773 6.92137L6.71933 10.7214C6.61863 10.7824 6.53542 10.858 6.4747 10.9438C6.41399 11.0295 6.37702 11.1236 6.36602 11.2203C6.35502 11.317 6.37021 11.4144 6.4107 11.5067C6.45118 11.5989 6.51611 11.684 6.60158 11.7569C6.68705 11.8298 6.79131 11.889 6.90806 11.9309C7.02482 11.9728 7.15168 11.9966 7.281 12.0008C7.41033 12.005 7.53945 11.9896 7.6606 11.9554C7.78176 11.9212 7.89244 11.869 7.986 11.8019L15.44 6.88237C15.6103 6.76969 15.7467 6.63121 15.8404 6.47607C15.934 6.32094 15.9827 6.15267 15.9833 5.98237Z" fill="white"/>
</svg>
