<svg width="18" height="18" viewBox="0 0 18 18" fill="none" xmlns="http://www.w3.org/2000/svg">
<g clip-path="url(#clip0_3_112)">
<path d="M17.993 8.99992C17.9923 8.74455 17.9376 8.49221 17.8323 8.25952C17.7271 8.02684 17.5738 7.81908 17.3825 7.64992L8.99822 0.270673C8.78164 0.0933794 8.50469 0.00709026 8.22574 0.0299906C7.94679 0.052891 7.68762 0.183192 7.50286 0.393433C7.3181 0.603674 7.22217 0.877433 7.23529 1.15702C7.24842 1.4366 7.36957 1.70017 7.57322 1.89217L14.051 7.59217C14.0794 7.61738 14.0995 7.65062 14.1086 7.68749C14.1177 7.72436 14.1154 7.76313 14.1019 7.79866C14.0885 7.83419 14.0646 7.8648 14.0334 7.88646C14.0022 7.90811 13.9652 7.91978 13.9272 7.91992H1.09172C0.805285 7.91992 0.530583 8.03371 0.328043 8.23625C0.125504 8.43879 0.0117188 8.71349 0.0117188 8.99992C0.0117188 9.28636 0.125504 9.56106 0.328043 9.7636C0.530583 9.96614 0.805285 10.0799 1.09172 10.0799H13.925C13.9629 10.0803 13.9999 10.0921 14.031 10.1139C14.0621 10.1356 14.0859 10.1663 14.0993 10.2018C14.1127 10.2373 14.115 10.2761 14.106 10.3129C14.097 10.3498 14.077 10.3831 14.0487 10.4084L7.57097 16.1084C7.45768 16.1999 7.36407 16.3134 7.29576 16.442C7.22745 16.5706 7.18586 16.7117 7.17349 16.8568C7.16111 17.0019 7.17821 17.148 7.22375 17.2863C7.26929 17.4247 7.34234 17.5523 7.4385 17.6617C7.53466 17.7711 7.65194 17.8599 7.78329 17.9227C7.91464 17.9856 8.05736 18.0213 8.20285 18.0276C8.34834 18.0339 8.4936 18.0107 8.6299 17.9594C8.7662 17.9081 8.89072 17.8298 8.99597 17.7292L17.3817 10.3499C17.5732 10.1809 17.7268 9.97318 17.8321 9.74048C17.9375 9.50777 17.9923 9.25537 17.993 8.99992Z" fill="white"/>
</g>
<defs>
<clipPath id="clip0_3_112">
<rect width="18" height="18" fill="white"/>
</clipPath>
</defs>
</svg>
