<svg width="39" height="39" viewBox="0 0 39 39" fill="none" xmlns="http://www.w3.org/2000/svg">
<path d="M19.1475 0.768555C29.2898 0.768555 37.5264 9.08478 37.5264 19.3604C37.5261 29.6357 29.2897 37.9512 19.1475 37.9512C9.00532 37.9511 0.768816 29.6356 0.768555 19.3604C0.768555 9.08484 9.00516 0.76865 19.1475 0.768555Z" stroke="#2E6091" stroke-width="1.53761"/>
<path d="M26.8811 16.4078C26.8728 15.7807 26.7566 15.1599 26.5375 14.5731C26.3475 14.0782 26.0573 13.6286 25.6854 13.2533C25.3136 12.878 24.8682 12.585 24.3779 12.3933C23.804 12.1758 23.1978 12.0582 22.585 12.0455C21.7959 12.0099 21.5458 12 19.5429 12C17.54 12 17.2832 12 16.5 12.0455C15.8874 12.0583 15.2814 12.1759 14.7078 12.3933C14.2174 12.5849 13.772 12.8778 13.4002 13.2531C13.0283 13.6285 12.7381 14.0781 12.5483 14.5731C12.3324 15.1519 12.2162 15.7637 12.2046 16.3821C12.1694 17.1794 12.1587 17.4319 12.1587 19.4536C12.1587 21.4753 12.1587 21.7337 12.2046 22.5251C12.2169 23.1444 12.3326 23.7554 12.5483 24.3358C12.7385 24.8306 13.0288 25.28 13.4008 25.6552C13.7728 26.0304 14.2182 26.3232 14.7087 26.5148C15.2807 26.741 15.8868 26.867 16.5008 26.8873C17.2906 26.9229 17.5408 26.9337 19.5437 26.9337C21.5466 26.9337 21.8033 26.9337 22.5866 26.8873C23.1994 26.8752 23.8057 26.7579 24.3795 26.5405C24.8698 26.3484 25.315 26.0554 25.6868 25.6801C26.0586 25.3048 26.3489 24.8554 26.5391 24.3606C26.7548 23.7811 26.8705 23.1701 26.8828 22.55C26.918 21.7535 26.9287 21.501 26.9287 19.4784C26.9271 17.4567 26.9271 17.2001 26.8811 16.4078ZM19.538 23.2769C17.4432 23.2769 15.7462 21.5639 15.7462 19.4495C15.7462 17.335 17.4432 15.6221 19.538 15.6221C20.5436 15.6221 21.508 16.0253 22.2191 16.7431C22.9302 17.4609 23.3297 18.4344 23.3297 19.4495C23.3297 20.4646 22.9302 21.4381 22.2191 22.1558C21.508 22.8736 20.5436 23.2769 19.538 23.2769ZM23.4806 16.373C23.3645 16.3731 23.2494 16.3501 23.1421 16.3053C23.0348 16.2605 22.9373 16.1947 22.8552 16.1118C22.773 16.0289 22.7079 15.9305 22.6635 15.8222C22.6191 15.7138 22.5963 15.5977 22.5964 15.4805C22.5964 15.3634 22.6193 15.2474 22.6637 15.1391C22.7081 15.0309 22.7732 14.9326 22.8553 14.8497C22.9374 14.7669 23.0348 14.7012 23.142 14.6563C23.2492 14.6115 23.3641 14.5884 23.4802 14.5884C23.5963 14.5884 23.7112 14.6115 23.8184 14.6563C23.9256 14.7012 24.023 14.7669 24.1051 14.8497C24.1872 14.9326 24.2523 15.0309 24.2967 15.1391C24.3411 15.2474 24.364 15.3634 24.364 15.4805C24.364 15.9739 23.9686 16.373 23.4806 16.373Z" fill="#2E6091"/>
<path d="M19.5327 21.9355C20.893 21.9355 21.9958 20.8224 21.9958 19.4493C21.9958 18.0762 20.893 16.9631 19.5327 16.9631C18.1724 16.9631 17.0697 18.0762 17.0697 19.4493C17.0697 20.8224 18.1724 21.9355 19.5327 21.9355Z" fill="#2E6091"/>
</svg>
