<svg width="39" height="39" viewBox="0 0 39 39" fill="none" xmlns="http://www.w3.org/2000/svg">
<path d="M19.1475 0.768555C29.2898 0.768555 37.5264 9.08478 37.5264 19.3604C37.5261 29.6357 29.2897 37.9512 19.1475 37.9512C9.00532 37.9511 0.768816 29.6356 0.768555 19.3604C0.768555 9.08484 9.00516 0.76865 19.1475 0.768555Z" stroke="#2E6091" stroke-width="1.53761"/>
<path d="M17.5862 22L22.2572 19.3L17.5862 16.6V22ZM27.9902 14.953C28.1072 15.376 28.1882 15.943 28.2422 16.663C28.3052 17.383 28.3322 18.004 28.3322 18.544L28.3862 19.3C28.3862 21.271 28.2422 22.72 27.9902 23.647C27.7652 24.457 27.2432 24.979 26.4332 25.204C26.0102 25.321 25.2362 25.402 24.0482 25.456C22.8782 25.519 21.8072 25.546 20.8172 25.546L19.3862 25.6C15.6152 25.6 13.2662 25.456 12.3392 25.204C11.5292 24.979 11.0072 24.457 10.7822 23.647C10.6652 23.224 10.5842 22.657 10.5302 21.937C10.4672 21.217 10.4402 20.596 10.4402 20.056L10.3862 19.3C10.3862 17.329 10.5302 15.88 10.7822 14.953C11.0072 14.143 11.5292 13.621 12.3392 13.396C12.7622 13.279 13.5362 13.198 14.7242 13.144C15.8942 13.081 16.9652 13.054 17.9552 13.054L19.3862 13C23.1572 13 25.5062 13.144 26.4332 13.396C27.2432 13.621 27.7652 14.143 27.9902 14.953Z" fill="#2E6091"/>
</svg>
