<svg width="39" height="39" viewBox="0 0 39 39" fill="none" xmlns="http://www.w3.org/2000/svg">
<path d="M19.1475 0.768555C29.2898 0.768555 37.5264 9.08478 37.5264 19.3604C37.5261 29.6357 29.2897 37.9512 19.1475 37.9512C9.00532 37.9511 0.768816 29.6356 0.768555 19.3604C0.768555 9.08484 9.00516 0.76865 19.1475 0.768555Z" stroke="#2E6091" stroke-width="1.53761"/>
<path d="M23.47 11H21.16C20.139 11 19.1596 11.4229 18.4377 12.1757C17.7156 12.9286 17.31 13.9496 17.31 15.0143V17.4229H15V20.6344H17.31V27.0573H20.39V20.6344H22.7L23.47 17.4229H20.39V15.0143C20.39 14.8014 20.4711 14.5972 20.6155 14.4466C20.7599 14.296 20.9558 14.2115 21.16 14.2115H23.47V11Z" fill="#2E6091"/>
</svg>
