<svg width="17" height="22" viewBox="0 0 17 22" fill="none" xmlns="http://www.w3.org/2000/svg">
<path fill-rule="evenodd" clip-rule="evenodd" d="M7.52722 20.8693C7.52722 20.8693 0 14.53 0 8.29218C0 6.09295 0.873638 3.98381 2.42872 2.42872C3.98381 0.873638 6.09295 0 8.29218 0C10.4914 0 12.6005 0.873638 14.1556 2.42872C15.7107 3.98381 16.5844 6.09295 16.5844 8.29218C16.5844 14.53 9.05713 20.8693 9.05713 20.8693C8.63837 21.2549 7.94909 21.2508 7.52722 20.8693ZM8.29218 11.92C8.76859 11.92 9.24034 11.8262 9.68049 11.6439C10.1206 11.4615 10.5206 11.1943 10.8574 10.8574C11.1943 10.5206 11.4615 10.1206 11.6439 9.68048C11.8262 9.24034 11.92 8.76859 11.92 8.29218C11.92 7.81576 11.8262 7.34401 11.6439 6.90387C11.4615 6.46372 11.1943 6.06379 10.8574 5.72691C10.5206 5.39004 10.1206 5.12282 9.68049 4.9405C9.24034 4.75819 8.76859 4.66435 8.29218 4.66435C7.33002 4.66435 6.40726 5.04657 5.72692 5.72691C5.04657 6.40726 4.66435 7.33002 4.66435 8.29218C4.66435 9.25433 5.04657 10.1771 5.72692 10.8574C6.40726 11.5378 7.33002 11.92 8.29218 11.92Z" fill="white"/>
</svg>
