<svg width="20" height="20" viewBox="0 0 20 20" fill="none" xmlns="http://www.w3.org/2000/svg">
<path d="M12.6105 19.2241C7.47517 17.0438 3.33835 13.0255 1.00974 7.95565V7.95322L0.380345 6.57073C-0.0356618 5.65537 -0.11321 4.62205 0.161514 3.65485C0.436239 2.68765 1.04539 1.84939 1.88047 1.28938L3.49701 0.205223C3.74881 0.0365173 4.05467 -0.0317798 4.35432 0.0137853C4.65397 0.0593504 4.9257 0.215474 5.11597 0.451403L8.06286 4.10408C8.16542 4.23129 8.24121 4.37791 8.28569 4.53515C8.33016 4.69238 8.3424 4.85698 8.32168 5.01906C8.30095 5.18115 8.24768 5.33737 8.16507 5.47835C8.08245 5.61933 7.9722 5.74216 7.84093 5.83947L6.31656 6.96971C7.74944 9.87099 10.0983 12.2194 12.9998 13.6517L14.13 12.1286C14.2273 11.9973 14.3502 11.8871 14.4912 11.8044C14.6321 11.7218 14.7884 11.6686 14.9504 11.6478C15.1125 11.6271 15.2771 11.6393 15.4344 11.6838C15.5916 11.7283 15.7382 11.8041 15.8654 11.9067L19.5181 14.8535C19.754 15.0438 19.9102 15.3155 19.9557 15.6152C20.0013 15.9148 19.933 16.2207 19.7643 16.4725L18.6874 18.0781C18.1303 18.9085 17.298 19.5155 16.3371 19.7921C15.3762 20.0688 14.3485 19.9974 13.4352 19.5904L12.6105 19.2241Z" fill="white"/>
</svg>
