<svg width="39" height="39" viewBox="0 0 39 39" fill="none" xmlns="http://www.w3.org/2000/svg">
<path d="M19.1475 0.768555C29.2898 0.768555 37.5264 9.08478 37.5264 19.3604C37.5261 29.6357 29.2897 37.9512 19.1475 37.9512C9.00532 37.9511 0.768816 29.6356 0.768555 19.3604C0.768555 9.08484 9.00516 0.76865 19.1475 0.768555Z" stroke="#2E6091" stroke-width="1.53761"/>
<path d="M18.9391 28.3333C24.0019 28.3333 28.1058 24.2294 28.1058 19.1667C28.1058 14.1039 24.0019 10 18.9391 10C13.8764 10 9.77246 14.1039 9.77246 19.1667C9.77246 22.8388 11.9321 26.0068 15.0506 27.4698L17.1498 17.601C17.2036 17.3665 17.3474 17.1625 17.5502 17.0331C17.7531 16.9037 17.9986 16.8592 18.234 16.9093C18.4693 16.9593 18.6755 17.0999 18.8081 17.3007C18.9407 17.5014 18.9891 17.7462 18.9428 17.9823C18.6916 19.1667 18.4716 19.625 18.4817 20.175C18.4973 21.0367 18.732 21.4968 18.9593 21.7352C19.1912 21.9781 19.5258 22.1092 19.963 22.1018C20.4095 22.0927 20.9145 21.9359 21.3619 21.6536C22.2318 21.1073 22.6058 20.1704 22.6058 19.1667C22.6052 18.6219 22.4832 18.0842 22.2488 17.5925C22.0143 17.1009 21.6732 16.6676 21.2504 16.3242C20.8275 15.9809 20.3334 15.7361 19.8041 15.6076C19.2747 15.4791 18.7234 15.4701 18.1902 15.5814C17.6569 15.6927 17.1552 15.9213 16.7214 16.2508C16.2876 16.5803 15.9327 17.0022 15.6824 17.486C15.4321 17.9699 15.2928 18.5034 15.2745 19.0478C15.2563 19.5922 15.3595 20.1338 15.5768 20.6333C15.6654 20.8545 15.6644 21.1014 15.574 21.3219C15.4837 21.5423 15.311 21.7189 15.0927 21.8143C14.8744 21.9096 14.6275 21.9162 14.4044 21.8326C14.1813 21.7491 13.9995 21.582 13.8975 21.3667C13.5326 20.5297 13.3818 19.615 13.4587 18.7052C13.5356 17.7954 13.8378 16.9191 14.3381 16.1552C14.8383 15.3914 15.5209 14.7641 16.3241 14.33C17.1274 13.8959 18.0261 13.6686 18.9391 13.6686C19.8522 13.6686 20.7509 13.8959 21.5541 14.33C22.3574 14.7641 23.0399 15.3914 23.5402 16.1552C24.0404 16.9191 24.3427 17.7954 24.4196 18.7052C24.4965 19.615 24.3457 20.5297 23.9808 21.3667C23.6435 22.144 23.0275 22.7728 22.3381 23.2064C21.646 23.6418 20.8192 23.9205 19.996 23.9352C19.2453 23.9489 18.4634 23.7408 17.8336 23.1945L16.7941 28.0822C17.4816 28.2472 18.2003 28.3342 18.9382 28.3342L18.9391 28.3333Z" fill="#2E6091"/>
</svg>
